<?xml version="1.0" encoding="UTF-8" standalone="no"?>
<svg
   width="24px"
   height="24px"
   stroke-width="1.5"
   viewBox="0 0 24 24"
   fill="none"
   color="#64c851"
   version="1.1"
   id="svg61"
   sodipodi:docname="white.svg"
   inkscape:version="1.1.2 (0a00cf5339, 2022-02-04)"
   xmlns:inkscape="http://www.inkscape.org/namespaces/inkscape"
   xmlns:sodipodi="http://sodipodi.sourceforge.net/DTD/sodipodi-0.dtd"
   xmlns="http://www.w3.org/2000/svg"
   xmlns:svg="http://www.w3.org/2000/svg">
  <defs
     id="defs65" />
  <sodipodi:namedview
     id="namedview63"
     pagecolor="#505050"
     bordercolor="#eeeeee"
     borderopacity="1"
     inkscape:pageshadow="0"
     inkscape:pageopacity="0"
     inkscape:pagecheckerboard="0"
     showgrid="false"
     inkscape:zoom="31"
     inkscape:cx="0.59677419"
     inkscape:cy="11.983871"
     inkscape:window-width="1896"
     inkscape:window-height="940"
     inkscape:window-x="12"
     inkscape:window-y="52"
     inkscape:window-maximized="0"
     inkscape:current-layer="svg61" />
  <path
     d="M21 3.6V20.4C21 20.7314 20.7314 21 20.4 21H3.6C3.26863 21 3 20.7314 3 20.4V3.6C3 3.26863 3.26863 3 3.6 3H20.4C20.7314 3 21 3.26863 21 3.6Z"
     stroke="#64c851"
     stroke-width="1.5"
     stroke-linecap="round"
     stroke-linejoin="round"
     id="path59"
     style="stroke:#88f374;stroke-opacity:1" />
  <path
     style="fill:#64c851;fill-opacity:1;stroke-width:0.0483871"
     d="M 3.7580645,12 V 3.7580645 H 12 20.241935 V 12 20.241935 H 12 3.7580645 Z"
     id="path3893" />
  <path
     style="fill:#64c851;fill-opacity:1;stroke-width:0.0483871"
     d="M 3.7580645,12 V 3.7580645 H 12 20.241935 V 12 20.241935 H 12 3.7580645 Z"
     id="path3932" />
  <path
     style="fill:#64c851;fill-opacity:1;stroke-width:0.0483871"
     d="M 3.7580645,12 V 3.7580645 H 12 20.241935 V 12 20.241935 H 12 3.7580645 Z"
     id="path3971" />
  <path
     style="fill:#64c851;fill-opacity:1;stroke-width:0.0483871"
     d="M 3.7580645,12 V 3.7580645 H 12 20.241935 V 12 20.241935 H 12 3.7580645 Z"
     id="path4010" />
  <path
     style="fill:#64c851;fill-opacity:1;stroke-width:0.0483871"
     d="M 3.7580645,12 V 3.7580645 H 12 20.241935 V 12 20.241935 H 12 3.7580645 Z"
     id="path4049" />
  <path
     style="fill:#64c851;fill-opacity:1;stroke-width:0.0483871"
     d="M 3.7580645,12 V 3.7580645 H 12 20.241935 V 12 20.241935 H 12 3.7580645 Z"
     id="path4088" />
  <path
     style="fill:#64c851;fill-opacity:1;stroke-width:0.0483871"
     d="M 3.7580645,12 V 3.7580645 H 12 20.241935 V 12 20.241935 H 12 3.7580645 Z"
     id="path4127" />
  <path
     style="fill:#64c851;fill-opacity:1;stroke-width:0.0483871"
     d="M 3.7580645,12 V 3.7580645 H 12 20.241935 V 12 20.241935 H 12 3.7580645 Z"
     id="path4166" />
  <path
     style="fill:#64c851;fill-opacity:1;stroke-width:0.0483871"
     d="M 3.7580645,12 V 3.7580645 H 12 20.241935 V 12 20.241935 H 12 3.7580645 Z"
     id="path4205" />
  <path
     style="fill:#64c851;fill-opacity:1;stroke-width:0.0483871"
     d="M 3.7580645,12 V 3.7580645 H 12 20.241935 V 12 20.241935 H 12 3.7580645 Z"
     id="path4244" />
  <path
     style="fill:#64c851;fill-opacity:1;stroke-width:0.0483871"
     d="M 3.7580645,12 V 3.7580645 H 12 20.241935 V 12 20.241935 H 12 3.7580645 Z"
     id="path4283" />
  <path
     style="fill:#64c851;fill-opacity:1;stroke-width:0.0483871"
     d="M 3.7580645,12 V 3.7580645 H 12 20.241935 V 12 20.241935 H 12 3.7580645 Z"
     id="path4322" />
  <path
     style="fill:#64c851;fill-opacity:1;stroke-width:0.0483871"
     d="M 3.7580645,12 V 3.7580645 H 12 20.241935 V 12 20.241935 H 12 3.7580645 Z"
     id="path4361" />
  <path
     style="fill:#64c851;fill-opacity:1;stroke-width:0.0483871"
     d="M 3.7580645,12 V 3.7580645 H 12 20.241935 V 12 20.241935 H 12 3.7580645 Z"
     id="path4400" />
  <path
     style="fill:#64c851;fill-opacity:1;stroke-width:0.0483871"
     d="M 3.7580645,12 V 3.7580645 H 12 20.241935 V 12 20.241935 H 12 3.7580645 Z"
     id="path4439" />
  <path
     style="fill:#64c851;fill-opacity:1;stroke-width:0.0483871"
     d="M 3.7580645,12 V 3.7580645 H 12 20.241935 V 12 20.241935 H 12 3.7580645 Z"
     id="path4478" />
  <path
     style="fill:#64c851;fill-opacity:1;stroke-width:0.0483871"
     d="M 3.7580645,12 V 3.7580645 H 12 20.241935 V 12 20.241935 H 12 3.7580645 Z"
     id="path4517" />
  <path
     style="fill:#64c851;fill-opacity:1;stroke-width:0.0483871"
     d="M 3.7580645,12 V 3.7580645 H 12 20.241935 V 12 20.241935 H 12 3.7580645 Z"
     id="path4556" />
  <path
     style="fill:#64c851;fill-opacity:1;stroke-width:0.0483871"
     d="M 3.7580645,12 V 3.7580645 H 12 20.241935 V 12 20.241935 H 12 3.7580645 Z"
     id="path4595" />
  <path
     style="fill:#88f374;fill-opacity:1;stroke-width:0.0483871"
     d="M 3.7580645,12 V 3.7580645 H 12 20.241935 V 12 20.241935 H 12 3.7580645 Z"
     id="path4634" />
  <path
     style="fill:#88f374;fill-opacity:1;stroke:#88f374;stroke-width:0.0483871;stroke-opacity:1"
     d="M 3.7741935,12 V 3.7741935 H 12 20.225806 V 12 20.225806 H 12 3.7741935 Z"
     id="path12845" />
  <path
     style="fill:#88f374;fill-opacity:1;stroke:#88f374;stroke-width:0.0483871;stroke-opacity:1"
     d="M 3.7741935,12 V 3.7741935 H 12 20.225806 V 12 20.225806 H 12 3.7741935 Z"
     id="path12884" />
  <path
     style="fill:#ffffff;stroke-width:0.0483871"
     d="m 3.3064516,21.696418 c -0.5124136,-0.127175 -0.9028177,-0.53019 -1.0120883,-1.04478 -0.051766,-0.243785 -0.051766,-17.0594914 0,-17.303276 0.1130293,-0.5322915 0.5231264,-0.9425057 1.0539987,-1.0542995 0.2445091,-0.05149 17.060753,-0.051198 17.303276,3.008e-4 0.530293,0.1126049 0.941394,0.5237056 1.053999,1.0539987 0.05177,0.2437846 0.05177,17.059491 0,17.303276 -0.111976,0.527328 -0.526671,0.942023 -1.053999,1.053999 -0.259031,0.055 -17.1225333,0.04604 -17.3451864,-0.0092 z"
     id="path257" />
  <path
     style="fill:#ffffff;stroke-width:0.0483871"
     d="M 7.1290323,21.711945 3.3064516,21.693089 3.1129032,21.615735 C 2.8416195,21.507311 2.4914195,21.156484 2.3855694,20.887097 L 2.3095185,20.693548 2.2833074,17.403226 C 2.2688913,15.593548 2.2661052,11.711277 2.2771161,8.7759565 2.2987186,3.0171058 2.2911772,3.2489683 2.466553,2.9516129 2.5871924,2.7470647 2.8369804,2.5205171 3.0645161,2.4092844 L 3.2741935,2.306782 7.6005074,2.2794937 c 2.4378916,-0.015377 6.2396376,-0.014805 8.7096776,0.00131 l 4.383363,0.028599 0.193549,0.076108 c 0.270844,0.1065031 0.621021,0.4567468 0.727253,0.7273912 l 0.07597,0.1935484 0.02598,3.3709678 c 0.03048,3.9548099 7.32e-4,13.7492249 -0.04247,13.9827439 -0.0163,0.08809 -0.06133,0.225993 -0.100061,0.306452 -0.08823,0.183268 -0.344587,0.457984 -0.527278,0.565048 -0.304023,0.178169 -0.125416,0.171905 -5.304557,0.186053 -2.634677,0.0072 -6.5104834,0.0046 -8.6129027,-0.0058 z"
     id="path296" />
  <path
     style="fill:#ffffff;stroke-width:0.0483871"
     d="M 7.1129032,21.712225 3.2741935,21.693548 3.06258,21.589987 C 2.8003437,21.461651 2.5148472,21.171733 2.3952139,20.912285 L 2.309227,20.725806 2.2828588,17.516129 C 2.2683562,15.750806 2.2654763,11.861889 2.2764588,8.8740913 2.2980235,3.0074242 2.2902185,3.2505938 2.466553,2.9516129 2.5867448,2.7478236 2.8358519,2.521581 3.063442,2.4095097 L 3.2727286,2.3064516 7.6211035,2.2792482 c 2.3916065,-0.014962 6.3185485,-0.014962 8.7265395,0 l 4.378163,0.027203 0.186491,0.087386 c 0.260914,0.1222591 0.549898,0.4075165 0.677479,0.6687423 l 0.10335,0.2116135 0.02707,4.3283559 c 0.01514,2.4209001 0.0145,6.2591541 -0.0014,8.7096781 l -0.02851,4.38132 -0.07366,0.1866 c -0.08442,0.213846 -0.360318,0.531994 -0.565764,0.652394 -0.302114,0.177051 -0.129286,0.171021 -5.308878,0.185225 -2.634677,0.0072 -6.5177415,0.0047 -8.6290318,-0.0055 z"
     id="path335" />
  <path
     style="fill:#ffffff;stroke-width:0.0483871"
     d="m 7.1129032,21.712005 -3.8387097,-0.01846 -0.186491,-0.08739 C 2.8279243,21.484435 2.5390978,21.199724 2.4105438,20.938651 L 2.3064516,20.727256 2.2811444,17.645886 C 2.2451312,13.260978 2.2825271,3.5101822 2.3362433,3.2791027 2.4181448,2.9267741 2.7017636,2.5876138 3.0634301,2.4095097 L 3.2727048,2.3064516 7.6282881,2.2794149 c 2.3955709,-0.01487 6.3228509,-0.01487 8.7272889,0 l 4.371706,0.027037 0.211382,0.1040922 c 0.261059,0.1285557 0.545777,0.417394 0.667497,0.6771587 l 0.08739,0.186491 0.02728,4.2883068 c 0.01532,2.4086026 0.01479,6.2334064 -0.0012,8.7258064 l -0.02849,4.437499 -0.08577,0.185586 c -0.09772,0.211447 -0.364913,0.510016 -0.557317,0.622773 -0.298944,0.175192 -0.132235,0.169431 -5.306109,0.183381 -2.634677,0.0071 -6.5177415,0.0046 -8.6290318,-0.0055 z"
     id="path374" />
  <path
     style="fill:#ffffff;stroke-width:0.0483871"
     d="m 7.0967742,21.711809 -3.8225807,-0.01826 -0.186491,-0.08739 C 2.8279696,21.484456 2.5391037,21.199725 2.4105438,20.938696 l -0.1040922,-0.21135 -0.028373,-4.16206 c -0.016325,-2.39472 -0.016325,-6.100615 0,-8.7273283 L 2.3064516,3.2726897 2.4108032,3.0607951 C 2.54404,2.7902468 2.7902348,2.5440475 3.0607832,2.4108032 L 3.2726659,2.3064516 7.6202765,2.2782907 c 2.4767135,-0.016042 6.2323265,-0.016042 8.7273335,0 l 4.379723,0.028161 0.211356,0.1040922 c 0.261036,0.128559 0.545764,0.4174194 0.667473,0.6771587 l 0.08739,0.186491 0.02783,4.2580646 c 0.01561,2.3875771 0.01561,6.2206588 0,8.7258068 l -0.02783,4.467741 -0.08739,0.186491 c -0.105988,0.226191 -0.389737,0.531629 -0.59814,0.643861 -0.08425,0.04537 -0.233022,0.09754 -0.330603,0.115926 -0.222367,0.0419 -8.225107,0.06531 -13.5806448,0.03972 z"
     id="path413" />
  <path
     style="fill:#ffffff;stroke-width:0.0483871"
     d="M 6.8225806,21.711919 3.2419355,21.693548 3.0415907,21.584891 C 2.7900338,21.448459 2.5077062,21.155305 2.3938377,20.912297 L 2.3064516,20.725806 2.2865992,18.435484 C 2.2607515,15.453491 2.2605458,9.0853958 2.2861924,5.8379581 L 2.3064516,3.2726904 2.4108032,3.0607954 C 2.5387812,2.8009252 2.7734778,2.5604978 3.0405665,2.4156547 l 0.201369,-0.1092031 2.4354839,-0.020095 c 3.120669,-0.025749 9.4408576,-0.025726 12.6129036,4.58e-5 l 2.467742,0.020049 0.200344,0.1086572 c 0.251557,0.1364321 0.533885,0.4295868 0.647753,0.6725937 l 0.08739,0.186491 0.02834,4.2861888 c 0.01628,2.4621129 0.01628,6.1755599 0,8.7258069 l -0.02834,4.439617 -0.08739,0.186491 c -0.105988,0.226191 -0.389737,0.531629 -0.59814,0.643861 -0.08425,0.04537 -0.233022,0.09762 -0.330603,0.116111 -0.219612,0.04161 -8.727095,0.06596 -13.8548384,0.03965 z"
     id="path452" />
  <path
     style="fill:#ffffff;stroke-width:0.0483871"
     d="M 6.3387097,21.710075 3.2419355,21.693548 3.0415907,21.584891 C 2.782371,21.444303 2.5077339,21.155012 2.385489,20.89378 L 2.289361,20.68836 2.271893,14.819987 C 2.262283,11.592381 2.266133,7.6738594 2.280433,6.1121606 L 2.3064516,3.2727087 2.4108032,3.0608046 C 2.5499346,2.7782741 2.7896542,2.5438978 3.0926641,2.3941422 L 3.3353637,2.2741935 H 12 20.664636 l 0.242218,0.1197103 c 0.300149,0.1483421 0.571183,0.4206473 0.706409,0.7097219 l 0.09488,0.2028259 0.01843,5.7096774 c 0.01014,3.140323 0.0069,7.060016 -0.0073,8.710429 l -0.02573,3.000751 -0.104092,0.211368 c -0.128557,0.261048 -0.417407,0.545771 -0.677159,0.667485 l -0.186491,0.08739 -2.741935,0.02018 c -3.051652,0.02245 -6.985331,0.02122 -11.6451613,-0.0036 z"
     id="path491" />
  <path
     style="fill:#ffffff;stroke-width:0.0483871"
     d="M 6.3225806,21.710077 3.2419355,21.693548 3.0415907,21.584891 C 2.7813152,21.443731 2.5077761,21.155102 2.3843943,20.891441 l -0.097222,-0.20776 -0.016474,-5.995066 C 2.261637,11.391328 2.265975,7.473859 2.2803376,5.9831281 L 2.3064516,3.2727075 2.4108032,3.060804 C 2.5438925,2.790544 2.7786548,2.556153 3.0738715,2.3987845 L 3.3064516,2.2748053 12,2.2748614 l 8.693548,5.61e-5 0.231668,0.1234436 c 0.295466,0.1574387 0.559042,0.4303256 0.69678,0.7213936 L 21.725609,3.3387097 21.725448,12 l -1.62e-4,8.66129 -0.103453,0.218955 c -0.138393,0.292905 -0.409669,0.574526 -0.683159,0.709211 l -0.211365,0.104092 -2.581396,0.02024 c -2.876526,0.02255 -7.180997,0.0212 -11.8233324,-0.0037 z"
     id="path530" />
  <path
     style="fill:#ffffff;stroke-width:0.0483871"
     d="M 6.0645161,21.710027 3.2419355,21.693548 3.0415907,21.584891 C 2.7802759,21.443167 2.5078185,21.155192 2.3833063,20.889116 l -0.09831,-0.210085 -0.015402,-6.218547 C 2.2611225,11.040282 2.26595,7.1169355 2.2803215,5.7419355 l 0.02613,-2.5 0.1092031,-0.201369 C 2.5602826,2.7738745 2.7891237,2.550641 3.0738715,2.3984787 L 3.3064516,2.2741935 12,2.2748546 l 8.693548,6.611e-4 0.207734,0.1077318 c 0.285057,0.1478318 0.549865,0.4092109 0.700609,0.6915366 l 0.123696,0.2316675 9.7e-5,8.6774194 9.7e-5,8.677419 -0.103706,0.218955 c -0.13876,0.292966 -0.410205,0.574664 -0.683399,0.709211 l -0.211354,0.104092 -2.549152,0.01994 c -2.875925,0.02249 -7.914422,0.02106 -12.1136539,-0.0035 z"
     id="path569" />
</svg>
